<?xml version="1.0" encoding="UTF-8" standalone="no"?><!DOCTYPE svg PUBLIC "-//W3C//DTD SVG 1.1//EN" "http://www.w3.org/Graphics/SVG/1.1/DTD/svg11.dtd"><svg width="100%" height="100%" viewBox="0 0 4167 4167" version="1.1" xmlns="http://www.w3.org/2000/svg" xmlns:xlink="http://www.w3.org/1999/xlink" xml:space="preserve" xmlns:serif="http://www.serif.com/" style="fill-rule:evenodd;clip-rule:evenodd;stroke-linecap:round;stroke-linejoin:round;stroke-miterlimit:1.5;"><g id="B"><path d="M2373.247,3769.597l-1371.42,0l-0,-92.436l38.655,0c104.201,0 178.99,-14.286 224.368,-42.857c45.378,-28.571 72.549,-66.106 81.512,-112.604c8.964,-46.498 13.445,-121.288 13.445,-224.368l0,-1489.066c0,-86.274 -7.003,-150.979 -21.008,-194.116c-14.006,-43.137 -45.658,-74.509 -94.957,-94.117c-49.299,-19.608 -129.971,-29.412 -242.015,-29.412l0,-92.436c188.619,-77.405 400.264,-156.155 500.64,-332.271c100.376,-176.117 105.737,-472.681 105.737,-472.681c-58.333,0 -58.308,-105.094 0.025,-105.094l516.667,0.184c58.79,0 58.958,105.078 0.168,105.078c0,0 13.691,289.201 110.087,472.513c96.396,183.313 289.62,269.943 464.168,375.615c114.792,69.496 169.776,117.061 186.53,130.604c67.226,54.341 119.607,117.926 157.142,190.755c37.535,72.829 56.302,151.82 56.302,236.973c0,91.876 -23.529,176.189 -70.588,252.94c-47.059,76.75 -118.767,141.176 -215.125,193.276c-96.358,52.1 -213.444,88.235 -351.258,108.403c226.329,30.252 399.997,100.56 521.005,210.923c121.008,110.363 181.511,247.898 181.511,412.602c0,85.154 -18.487,163.864 -55.462,236.133c-36.975,72.268 -90.195,135.013 -159.663,188.234c-69.467,53.221 -153.5,94.397 -252.099,123.529c-98.599,29.131 -206.721,43.697 -324.368,43.697Zm30.252,-1169.74c112.044,42.577 197.478,108.683 256.301,198.318c58.823,89.635 88.235,207.842 88.235,354.62c0,280.11 -112.604,459.381 -337.813,537.812c144.537,-16.807 254.06,-73.109 328.569,-168.906c74.509,-95.798 111.764,-226.609 111.764,-392.434c0,-153.5 -39.496,-277.589 -118.487,-372.266c-78.991,-94.677 -188.514,-147.058 -328.569,-157.142Zm20.168,-97.478c255.461,-66.106 383.191,-234.732 383.191,-505.879c0,-88.515 -14.566,-169.467 -43.697,-242.856c-29.131,-73.389 -73.109,-133.613 -131.932,-180.671c-58.823,-47.059 -131.372,-74.509 -217.646,-82.352c91.876,38.095 162.464,102.8 211.763,194.116c49.299,91.316 73.949,201.399 73.949,330.25c0,235.293 -91.876,397.756 -275.628,487.392Zm-900.834,899.154l0,-1687.384c0,-76.19 -15.126,-132.492 -45.378,-168.906c-30.252,-36.414 -86.274,-54.621 -168.066,-54.621l-35.294,0c53.781,15.686 90.756,42.297 110.924,79.831c20.168,37.535 30.252,98.319 30.252,182.352l0,1658.813c0,85.154 -10.924,145.657 -32.773,181.511c-21.849,35.854 -57.983,63.865 -108.403,84.033l48.739,0c87.394,0 142.576,-26.05 165.545,-78.151c22.969,-52.1 34.454,-117.926 34.454,-197.478Zm257.141,-805.037l0,818.482c0,57.142 6.723,102.24 20.168,135.293c13.445,33.053 36.134,59.383 68.067,78.991c31.933,19.608 71.428,32.493 118.487,38.655c47.059,6.162 111.484,9.244 193.276,9.244c115.405,0 210.923,-20.448 286.553,-61.344c75.63,-40.896 132.212,-100.279 169.747,-178.15c37.535,-77.871 56.302,-172.828 56.302,-284.872c0,-113.165 -21.288,-211.483 -63.865,-294.956c-42.577,-83.473 -103.361,-147.898 -182.352,-193.276c-78.991,-45.378 -173.388,-68.067 -283.191,-68.067l-383.191,0Zm0,-94.117l314.284,0c151.26,0 262.183,-17.927 332.771,-53.781c64.986,-33.613 117.366,-90.476 157.142,-170.587c39.776,-80.112 59.663,-170.587 59.663,-271.427c0,-80.672 -12.605,-156.021 -37.815,-226.049c-25.21,-70.028 -60.784,-127.45 -106.722,-172.268c-48.179,-50.42 -101.12,-82.633 -158.822,-96.638c-57.703,-14.006 -135.293,-21.008 -232.772,-21.008c-127.73,0 -214.284,19.608 -259.662,58.823c-45.378,39.215 -68.067,107.002 -68.067,203.36l0,749.575Z"/><path d="M1630.544,642.14c44.011,109.236 3.941,364.226 -25.742,428.501c-47.55,102.963 -141.207,112.994 -77.938,-16.56c31.396,-64.289 61.497,-138.856 103.679,-411.941Z" style="fill:#fff;stroke:#000;stroke-width:4.17px;"/><path d="M1545.833,472.069l41.667,-75l558.333,0l41.667,75l-641.667,0Z"/><path d="M1545.833,472.069l641.667,0l-41.667,-75l-558.333,0l-41.667,75Z" style="fill:none;stroke:#000;stroke-width:4.17px;"/><path d="M1589.607,434.569l35.237,0l0,41.649l-35.318,0l0.08,-41.649Z" style="fill:#fff;"/><path d="M1677.107,434.569l35.237,0l0,41.649l-35.318,0l0.08,-41.649Z" style="fill:#fff;"/><path d="M1764.607,434.569l35.237,0l0,41.649l-35.318,0l0.08,-41.649Z" style="fill:#fff;"/><path d="M1852.107,434.569l35.237,0l0,41.649l-35.318,0l0.08,-41.649Z" style="fill:#fff;"/><path d="M1939.607,434.569l35.237,0l0,41.649l-35.318,0l0.08,-41.649Z" style="fill:#fff;"/><path d="M2027.107,434.569l35.237,0l0,41.649l-35.318,0l0.08,-41.649Z" style="fill:#fff;"/><path d="M2114.607,434.569l35.237,0l0,41.649l-35.318,0l0.08,-41.649Z" style="fill:#fff;"/></g></svg>